<svg xmlns="http://www.w3.org/2000/svg" viewBox="0 0 512 512">
  <circle cx="256" cy="256" r="256" fill="black" />
  <path
    d="M256 144c7.5 0 14.3 4.7 16.8 11.7l20.4 59.4h62.4c17 0 24.1 21.7 10.2 31.6l-50.5 36.7 19.3 60.5c5.2 16.4-13.7 30-28 20l-50.6-36.8-50.6 36.8c-14.2 10-33.2-3.6-28-20l19.3-60.5-50.5-36.7c-13.9-10-6.9-31.6 10.2-31.6h62.4l20.4-59.4c2.5-7 9.3-11.7 16.8-11.7z"
    fill="white"
  />
  <mask id="cutout">
    <rect width="100%" height="100%" fill="white" />
    <path
      d="M256 144c7.5 0 14.3 4.7 16.8 11.7l20.4 59.4h62.4c17 0 24.1 21.7 10.2 31.6l-50.5 36.7 19.3 60.5c5.2 16.4-13.7 30-28 20l-50.6-36.8-50.6 36.8c-14.2 10-33.2-3.6-28-20l19.3-60.5-50.5-36.7c-13.9-10-6.9-31.6 10.2-31.6h62.4l20.4-59.4c2.5-7 9.3-11.7 16.8-11.7z"
      fill="black"
    />
  </mask>
  <circle cx="256" cy="256" r="256" fill="black" mask="url(#cutout)" />
</svg>
